<?xml version="1.0" encoding="UTF-8" standalone="no"?>
<svg
   xmlns:dc="http://purl.org/dc/elements/1.1/"
   xmlns:cc="http://creativecommons.org/ns#"
   xmlns:rdf="http://www.w3.org/1999/02/22-rdf-syntax-ns#"
   xmlns:svg="http://www.w3.org/2000/svg"
   xmlns="http://www.w3.org/2000/svg"
   xmlns:sodipodi="http://sodipodi.sourceforge.net/DTD/sodipodi-0.dtd"
   xmlns:inkscape="http://www.inkscape.org/namespaces/inkscape"
   viewBox="0 0 100 30"
   version="1.1"
   id="svg34"
   sodipodi:docname="Ventura Plaza logo.svg"
   width="100"
   height="30"
   inkscape:version="0.92.4 (5da689c313, 2019-01-14)">
  <title
     id="title38">Parmalat logo</title>
  <metadata
     id="metadata38">
    <rdf:RDF>
      <cc:Work
         rdf:about="">
        <dc:format>image/svg+xml</dc:format>
        <dc:type
           rdf:resource="http://purl.org/dc/dcmitype/StillImage" />
        <dc:title>Parmalat logo</dc:title>
        <cc:license
           rdf:resource="http://scripts.sil.org/OFL" />
        <dc:date>20 enero 2020</dc:date>
        <dc:creator>
          <cc:Agent>
            <dc:title>EEIM</dc:title>
          </cc:Agent>
        </dc:creator>
      </cc:Work>
      <cc:License
         rdf:about="http://scripts.sil.org/OFL">
        <cc:permits
           rdf:resource="http://scripts.sil.org/pub/OFL/Reproduction" />
        <cc:permits
           rdf:resource="http://scripts.sil.org/pub/OFL/Distribution" />
        <cc:permits
           rdf:resource="http://scripts.sil.org/pub/OFL/Embedding" />
        <cc:permits
           rdf:resource="http://scripts.sil.org/pub/OFL/DerivativeWorks" />
        <cc:requires
           rdf:resource="http://scripts.sil.org/pub/OFL/Notice" />
        <cc:requires
           rdf:resource="http://scripts.sil.org/pub/OFL/Attribution" />
        <cc:requires
           rdf:resource="http://scripts.sil.org/pub/OFL/ShareAlike" />
        <cc:requires
           rdf:resource="http://scripts.sil.org/pub/OFL/DerivativeRenaming" />
        <cc:requires
           rdf:resource="http://scripts.sil.org/pub/OFL/BundlingWhenSelling" />
      </cc:License>
    </rdf:RDF>
  </metadata>
  <sodipodi:namedview
     pagecolor="#ffffff"
     bordercolor="#666666"
     borderopacity="1"
     objecttolerance="10"
     gridtolerance="10"
     guidetolerance="10"
     inkscape:pageopacity="0"
     inkscape:pageshadow="2"
     inkscape:window-width="1366"
     inkscape:window-height="705"
     id="namedview36"
     showgrid="false"
     inkscape:showpageshadow="false"
     inkscape:zoom="1"
     inkscape:cx="73.367191"
     inkscape:cy="22.855014"
     inkscape:window-x="-8"
     inkscape:window-y="-8"
     inkscape:window-maximized="1"
     inkscape:current-layer="svg34"
     showguides="false" />
  <defs
     id="defs4">
    <style
       id="style2">.cls-1{fill:#eb2227;}</style>
  </defs>
  <g
     id="g2454"
     transform="matrix(0.56452753,0,0,0.56452753,0.49362846,-16.042317)">
    <g
       id="g4"
       style="fill:#939ca1;fill-rule:nonzero;stroke:none;stroke-width:1;stroke-linecap:butt;stroke-linejoin:miter;stroke-dasharray:none"
       transform="translate(0,29.2539)">
      <path
         inkscape:connector-curvature="0"
         style="stroke-width:1.24669111"
         d="m -174.54688,43.134766 c 30.11882,6.388045 50.47657,18.638139 50.47657,31.300781 0,15.98258 -31.54845,29.375373 -75.0293,32.812503 49.42382,-1.56709 87.26367,-15.372541 87.26367,-32.812503 0,-14.847343 -26.05448,-26.51249 -62.71094,-31.300781 z m -92.91015,0.04492 c -36.65446,4.788415 -62.70703,16.45244 -62.70703,31.300781 0,17.438715 37.83478,31.244703 87.26172,32.810553 -43.48309,-3.43589 -75.0293,-16.82922 -75.0293,-32.810553 0,-12.662642 20.3568,-24.913858 50.47461,-31.300781 z"
         transform="matrix(0.80212332,0,0,0.80212332,264.83263,-34.634729)"
         id="path6" />
    </g>
    <g
       id="g8"
       style="fill:#939ca1;fill-rule:nonzero;stroke:none;stroke-width:1;stroke-linecap:butt;stroke-linejoin:miter;stroke-dasharray:none"
       transform="translate(105.13075,29.2178)" />
    <g
       id="g12"
       style="fill:#939ca1;fill-rule:nonzero;stroke:none;stroke-width:1;stroke-linecap:butt;stroke-linejoin:miter;stroke-dasharray:none"
       transform="translate(80.02055,28.7842)" />
    <g
       id="g16"
       style="fill:#939ca1;fill-rule:nonzero;stroke:none;stroke-width:1;stroke-linecap:butt;stroke-linejoin:miter;stroke-dasharray:none"
       transform="translate(81.48635)" />
    <g
       id="g20"
       style="fill:#939ca1;fill-rule:nonzero;stroke:none;stroke-width:1;stroke-linecap:butt;stroke-linejoin:miter;stroke-dasharray:none"
       transform="translate(51.41995,16.7139)" />
    <g
       id="g24"
       style="fill:#939ca1;fill-rule:nonzero;stroke:none;stroke-width:1;stroke-linecap:butt;stroke-linejoin:miter;stroke-dasharray:none"
       transform="translate(104.52975,16.7285)" />
    <g
       id="g28"
       style="fill:#939ca1;fill-rule:nonzero;stroke:none;stroke-width:1;stroke-linecap:butt;stroke-linejoin:miter;stroke-dasharray:none"
       transform="translate(87.64745,10.0616)" />
    <g
       id="g32"
       style="fill:#939ca1;fill-rule:nonzero;stroke:none;stroke-width:1;stroke-linecap:butt;stroke-linejoin:miter;stroke-dasharray:none"
       transform="translate(69.57915,10.0498)" />
    <g
       id="g36"
       style="fill:#939ca1;fill-rule:nonzero;stroke:none;stroke-width:1;stroke-linecap:butt;stroke-linejoin:miter;stroke-dasharray:none"
       transform="translate(54.63285,28.9629)" />
    <g
       id="g40"
       style="fill:#939ca1;fill-rule:nonzero;stroke:none;stroke-width:1;stroke-linecap:butt;stroke-linejoin:miter;stroke-dasharray:none"
       transform="translate(97.11475,28.9629)" />
    <g
       id="g44"
       style="fill:#939ca1;fill-rule:nonzero;stroke:none;stroke-width:1;stroke-linecap:butt;stroke-linejoin:miter;stroke-dasharray:none"
       transform="translate(25.22755,44.7244)">
      <path
         inkscape:connector-curvature="0"
         style="stroke-width:1.24669111"
         d="m -180.36914,56.544922 c -0.96369,0 -0.96484,0.966797 -0.96484,0.966797 v 26.226562 c 0,0.967433 0.96484,0.964844 0.96484,0.964844 h 4.01758 c 0,0 0.96289,9.5e-5 0.96289,-0.964844 V 57.511719 c 0,0 -0.002,-0.966797 -0.96289,-0.966797 z m 31.83398,0.0039 c -0.96494,0 -0.96484,0.96875 -0.96484,0.96875 v 4.572266 c 0,0 1e-4,0.964844 -0.96484,0.964844 h -1.67188 c -0.96244,0 -0.96289,0.958984 -0.96289,0.958984 v 2.054687 c 0,0.971173 0.96289,0.964844 0.96289,0.964844 h 1.67188 c 0.96494,0 0.96484,0.962891 0.96484,0.962891 v 11.808594 c 0,4.312304 3.18068,5.148437 6.82227,5.148437 0.82531,0 1.71329,-0.01255 2.51367,-0.08984 0.97117,-0.08602 0.96484,-0.964843 0.96484,-0.964843 v -2.701172 c 0,-1.084622 -0.0735,-1.039105 -0.96484,-0.966797 -0.28799,0.02244 -0.57526,0.03516 -0.87696,0.03516 -2.00717,0 -2.51171,-0.506499 -2.51171,-2.513672 v -9.755859 c 0,-0.959952 0.96289,-0.962891 0.96289,-0.962891 h 2.42578 c 0,0 0.96484,0.0063 0.96484,-0.964844 v -2.054687 c 0,0 1e-4,-0.958984 -0.96484,-0.958984 h -2.42578 c -0.96245,0 -0.96289,-0.964844 -0.96289,-0.964844 V 57.51758 c 0,0 0.003,-0.96875 -0.96485,-0.96875 z m -137.99218,5.916016 c -2.66256,0 -4.99558,1.034463 -6.41993,3.304687 -0.011,0.01621 -0.0406,0.05078 -0.0723,0.05078 0,0 -0.041,-0.0013 -0.041,-0.04492 v -1.761719 c 0,-0.959952 -0.96484,-0.958984 -0.96484,-0.958984 h -3.7207 c 0,0 -0.9668,-0.0047 -0.9668,0.958984 v 27.34375 c 0,0.971172 0.9668,0.966797 0.9668,0.966797 h 4.01171 c 0,0 0.96485,-0.0012 0.96485,-0.964844 V 82.07226 c 0,-0.05111 0.043,-0.04687 0.043,-0.04687 h 0.0234 c 0.0365,0 0.0449,0.02148 0.0449,0.02148 1.42571,2.138075 3.86798,3.244141 6.46484,3.244141 6.32222,0 9.50586,-5.401981 9.50586,-11.181641 0,-6.157407 -3.05485,-11.644531 -9.83984,-11.644531 z m 21.16796,0 c -4.5655,0 -9.24097,1.484689 -10.0664,6.283203 -0.0549,0.306686 -0.10332,0.964844 0.85351,0.964844 h 4.19922 c 0.77682,0 0.87525,-0.675612 0.96289,-0.964844 0.48945,-1.638152 1.83791,-2.300781 3.75782,-2.300781 2.09294,0 3.85156,0.37771 3.85156,2.929687 0,2.429801 -3.3912,2.304805 -7.03516,2.849609 -3.68522,0.499924 -7.37109,1.673477 -7.37109,6.574219 0,4.438221 3.26823,6.490235 7.37109,6.490235 2.6188,0 5.36189,-0.700608 7.24414,-2.636719 0.0158,-0.01496 0.0469,-0.04754 0.0469,-0.0039 0.0243,0.366527 0.0783,0.73009 0.15625,1.08789 0.073,0.32788 0.25527,0.964844 0.96875,0.964844 h 4.35547 c 0.96057,0 0.68579,-0.57197 0.58593,-0.960937 -0.26666,-1.01356 -0.37304,-2.433535 -0.37304,-3.853516 V 68.625 c 0,-5.192468 -5.19426,-6.160156 -9.50782,-6.160156 z m 24.14649,0 c -2.87213,0 -5.78701,1.86466 -6.89258,4.5625 -0.004,0.01496 -0.0289,0.04883 -0.0606,0.04883 0,0 -0.0391,-0.0068 -0.0391,-0.04297 v -3.013672 c 0,-0.968679 -0.9668,-0.964843 -0.9668,-0.964843 h -3.72851 c 0,0 -0.95703,-0.0038 -0.95703,0.964843 v 19.71875 c 0,0.964939 0.96289,0.964844 0.96289,0.964844 h 4.01758 c 0,0 0.96484,9.5e-5 0.96484,-0.964844 v -8.791015 c 0,-3.811135 1.50763,-6.951172 5.86133,-6.951172 0.36889,0 0.7827,0.02261 1.16992,0.0625 0.36279,0.03366 0.9668,0.150319 0.9668,-0.81836 V 63.45312 c 0,-0.782922 -0.63543,-0.939536 -0.97266,-0.970703 -0.11208,-0.0087 -0.22157,-0.01758 -0.32617,-0.01758 z m 15.21289,0 c -2.78311,0 -5.03144,1.280807 -6.58008,3.46875 -0.0122,0.0187 -0.0326,0.05469 -0.0801,0.05469 0,0 -0.0391,-4.1e-5 -0.0391,-0.04492 V 64.01953 c 0,-0.968679 -0.9668,-0.964843 -0.9668,-0.964843 h -3.67773 c 0,0 -0.9668,-0.0047 -0.9668,0.958984 V 83.73828 c 0,0.971173 0.96485,0.964844 0.96485,0.964844 h 4.01758 c 0,0 0.96484,-0.0049 0.96484,-0.964844 V 72.142578 c 0,-4.231269 2.84644,-4.982422 4.01758,-4.982422 3.76937,0 3.59961,2.883862 3.59961,5.398438 v 11.179687 c 0,0.971173 0.96484,0.964844 0.96484,0.964844 h 4.01563 c -1e-5,0 0.96484,0.0063 0.96484,-0.964844 V 72.642578 c 0,-2.721527 0.62849,-5.482422 3.98047,-5.482422 3.38975,0 3.64258,2.384854 3.64258,5.273438 v 11.304687 c 0,0.971173 0.96484,0.964844 0.96484,0.964844 h 4.01367 c 0,0 0.96289,0.0026 0.96289,-0.964844 v -13.52539 c 0,-5.61011 -3.29989,-7.748047 -7.91015,-7.748047 -3.01625,0 -5.27289,1.722259 -6.5293,3.603515 -1.17488,-2.593117 -3.60319,-3.603515 -6.32422,-3.603515 z m 32.85742,0 c -4.56039,0 -9.24093,1.484689 -10.0625,6.283203 -0.0536,0.306686 -0.10589,0.964844 0.85156,0.964844 h 4.20118 c 0.77668,0 0.87171,-0.675612 0.95898,-0.964844 0.48995,-1.638152 1.84236,-2.300781 3.75977,-2.300781 2.09319,0 3.85351,0.37771 3.85351,2.929687 0,2.429801 -3.39357,2.304805 -7.03515,2.849609 -3.68896,0.499924 -7.3711,1.673477 -7.3711,6.574219 0,4.438221 3.2645,6.490235 7.3711,6.490235 2.61555,0 5.36109,-0.700608 7.24609,-2.636719 0.0112,-0.01496 0.0449,-0.04754 0.0449,-0.0039 0.0212,0.366527 0.0782,0.73009 0.1543,1.08789 0.0711,0.32788 0.25315,0.964844 0.96875,0.964844 h 4.35351 c 0.9637,0 0.68746,-0.57197 0.58399,-0.960937 -0.26181,-1.01356 -0.3711,-2.433535 -0.3711,-3.853516 V 68.625 c 0,-5.192468 -5.19301,-6.160156 -9.50781,-6.160156 z m 30.14063,0 c -4.56539,0 -9.2411,1.484689 -10.06641,6.283203 -0.0561,0.306686 -0.10768,0.964844 0.85352,0.964844 h 4.19922 c 0.78167,0 0.87562,-0.675612 0.96289,-0.964844 0.48995,-1.638152 1.8372,-2.300781 3.75585,-2.300781 2.09569,0 3.85743,0.37771 3.85743,2.929687 0,2.429801 -3.39856,2.304805 -7.03516,2.849609 -3.68896,0.499924 -7.37109,1.673477 -7.37109,6.574219 0,4.438221 3.26574,6.490235 7.37109,6.490235 2.61431,0 5.36022,-0.700608 7.24023,-2.636719 0.015,-0.01496 0.0449,-0.04754 0.0449,-0.0039 0.0249,0.366527 0.0809,0.73009 0.1582,1.08789 0.0723,0.32788 0.25618,0.964844 0.9668,0.964844 h 4.35742 c 0.96494,0 0.68621,-0.57197 0.58398,-0.960937 -0.2618,-1.01356 -0.37109,-2.433535 -0.37109,-3.853516 V 68.625 c 0,-5.192468 -5.19426,-6.160156 -9.50781,-6.160156 z m -124.82422,4.484375 c 3.80951,0 5.19336,3.5588 5.19336,6.992187 0,3.518163 -1.26005,6.867188 -5.15235,6.867188 -3.85327,0 -5.19336,-3.349025 -5.19336,-6.867188 0,-3.516915 1.25644,-6.992187 5.15235,-6.992187 z m 26.00781,7.175781 c 0.009,-0.0044 0.0176,-1.67e-4 0.0176,0.02539 v 2.175781 c 0,1.301545 -0.16492,4.986328 -4.81445,4.986328 -1.92602,0 -3.64649,-0.544562 -3.64649,-2.763672 0,-2.176723 1.67809,-2.803893 3.51758,-3.18164 1.8178,-0.332867 3.87565,-0.37794 4.89844,-1.220704 0.008,-0.0056 0.0181,-0.01712 0.0273,-0.02148 z m 72.2207,0 c 0.01,-0.0044 0.0176,-1.67e-4 0.0176,0.02539 v 2.175781 c 0,1.301545 -0.16803,4.986328 -4.81445,4.986328 -1.92739,0 -3.64649,-0.544562 -3.64649,-2.763672 0,-2.176723 1.67443,-2.803893 3.51954,-3.18164 1.81518,-0.332867 3.87419,-0.37794 4.89648,-1.220704 0.007,-0.0056 0.0178,-0.01712 0.0273,-0.02148 z m 30.13868,0 c 0.01,-0.0044 0.0195,-1.67e-4 0.0195,0.02539 v 2.175781 c 0,1.301545 -0.17016,4.986328 -4.82032,4.986328 -1.92489,0 -3.63867,-0.544562 -3.63867,-2.763672 0,-2.176723 1.67036,-2.803893 3.51172,-3.18164 1.81768,-0.332867 3.87865,-0.37794 4.89844,-1.220704 0.008,-0.0056 0.0195,-0.01712 0.0293,-0.02148 z"
         transform="matrix(0.80212332,0,0,0.80212332,239.60508,-50.105229)"
         id="path46" />
    </g>
    <g
       id="g48"
       style="fill:#939ca1;fill-rule:nonzero;stroke:none;stroke-width:1;stroke-linecap:butt;stroke-linejoin:miter;stroke-dasharray:none"
       transform="translate(43.28125,44.7244)" />
    <g
       id="g52"
       style="fill:#939ca1;fill-rule:nonzero;stroke:none;stroke-width:1;stroke-linecap:butt;stroke-linejoin:miter;stroke-dasharray:none"
       transform="translate(101.21075,44.7244)" />
    <g
       id="g56"
       style="fill:#939ca1;fill-rule:nonzero;stroke:none;stroke-width:1;stroke-linecap:butt;stroke-linejoin:miter;stroke-dasharray:none"
       transform="translate(125.38675,44.7244)" />
    <g
       id="g60"
       style="fill:#939ca1;fill-rule:nonzero;stroke:none;stroke-width:1;stroke-linecap:butt;stroke-linejoin:miter;stroke-dasharray:none"
       transform="translate(61.20705,44.7244)" />
    <g
       id="g64"
       style="fill:#939ca1;fill-rule:nonzero;stroke:none;stroke-width:1;stroke-linecap:butt;stroke-linejoin:miter;stroke-dasharray:none"
       transform="translate(73.67875,44.7244)" />
    <g
       id="g68"
       style="fill:#939ca1;fill-rule:nonzero;stroke:none;stroke-width:1;stroke-linecap:butt;stroke-linejoin:miter;stroke-dasharray:none"
       transform="translate(119.38075,39.9756)" />
    <g
       id="g72"
       style="fill:#939ca1;fill-rule:nonzero;stroke:none;stroke-width:1;stroke-linecap:butt;stroke-linejoin:miter;stroke-dasharray:none"
       transform="translate(142.02775,39.9785)" />
  </g>
</svg>
